# xmcd
#
# Track frame offsets:
#	150
#	17285
#	30797
#	43497
#	60465
#	74637
#	93420
#	110475
#	127195
#	141747
#	157525
#	176952
#	192872
#	204887
#	219467
#	236435
#
# Disc length: 3354 seconds
#
# Revision: 3
# Processed by: cddbd v1.5.1PL0 Copyright (c) Steve Scherf et al.
# Submitted via: audiograbber 1.83.01
#
DISCID=e00d1810
DTITLE=Travis Tritt - The Rockin' Side
DYEAR=2002
DGENRE=Country
TTITLE0=Rough Around The Edges
TTITLE1=T-R-O-U-B-L-E
TTITLE2=Bible Belt (Feat. Little Feat)
TTITLE3=Blue Collar Man
TTITLE4=Wishful Thinking
TTITLE5=Start The Car
TTITLE6=Back Up Against The Wall
TTITLE7=Looking Out For Number One
TTITLE8=Double Trouble (With Marty Stuart)
TTITLE9=Ten Feet Tall And Bulletproof
TTITLE10=Put Some Drive In Your Country
TTITLE11=Take It Easy
TTITLE12=The Whiskey Ain't Workin' (With Marty Stuart)
TTITLE13=Hard Times And Misery
TTITLE14=No More Looking Over My Shoulder
TTITLE15=Still In Love With You
EXTD=
EXTT0=
EXTT1=
EXTT2=
EXTT3=
EXTT4=
EXTT5=
EXTT6=
EXTT7=
EXTT8=
EXTT9=
EXTT10=
EXTT11=
EXTT12=
EXTT13=
EXTT14=
EXTT15=
PLAYORDER=
